<?xml version="1.0" encoding="utf-8"?>
<!-- Generator: Adobe Illustrator 19.2.1, SVG Export Plug-In . SVG Version: 6.00 Build 0)  -->
<svg version="1.1" id="Layer_1" xmlns="http://www.w3.org/2000/svg" xmlns:xlink="http://www.w3.org/1999/xlink" x="0px" y="0px"
	 viewBox="0 0 1136 640" style="enable-background:new 0 0 1136 640;" xml:space="preserve">
<style type="text/css">
	.st0{fill:none;stroke:#000000;stroke-width:10;stroke-miterlimit:10;}
	.st1{opacity:8.000000e-02;}
	.st2{fill:none;stroke:#000000;stroke-width:7;stroke-miterlimit:10;}
</style>
<path d="M356.9,416c-5-14-16.8-40.3-19.1-45.9c-2.9-7.1-11.7-28.1-13-29.4c-1.3-1.3-2.6-11.9-2.6-24.6c0-12.6,5.2-66.1,6.8-66.7
	c1.6-0.6,45.4-69.7,45.4-69.7s-0.3-1.9-6.2-6.2c-5.8-4.2-19.4,15.9-19.8,17.5c-0.3,1.6-20.1,25.3-20.1,25.3s2.6-40.8,2.9-44.1
	c0.3-3.2-1.3-54.8-1.3-54.8s-4.5-1.6-7.8-1.9c-3.2-0.3-7.1,7.1-7.1,7.1c-0.6,3.2-4.2,40.5-4.2,40.5s-9.1-31.8-9.4-35
	c-0.3-3.2-7.5-26.6-10.7-30.1c-3.2-3.6-11,6.5-12.6,9.1c-1.6,2.6,5.8,35,5.8,39.2s6.8,74.2,6.8,74.2S273.3,195,270,190.2
	c-3.2-4.9-8.8-6.2-10.4-5.5c-1.6,0.6-11.7,4.5-14.3,4.9c-2.6,0.3-28.8,13.3-31.4,14.3c-1.8,0.7-6.7,8.1-9.6,13.4
	c-2.8-2.1-5.8-4.1-8.3-5.6c-5.5-3.6-10.4-1.3-10.7,0c-0.3,1.3,4.2,22.7,5.2,26.6c1,3.9,1,13.9,2.6,17.5c1.6,3.6,23.3,38.2,25,42.5
	c1.6,4.2,11,20.1,13.3,25.3c2.3,5.2,16.2,25.3,18.2,27.2c1.9,1.9,14.6,17,16.2,18.6c1.3,1.3,15.9,31.8,21.7,46.8H356.9z
	 M265.5,257.3c-0.6,2.9-11.3,9.4-15.9,11.3s-13.9-1.3-17.5-3.6c-3.6-2.3-19.1-34.7-20.4-39.5c0-0.1-0.1-0.3-0.2-0.4
	c3.2,0.5,6.5,0.7,8.3,0.7c4.2,0,15.6-9.4,18.2-11c2.6-1.6,13.9-2.6,14.3-0.6c0.3,1.9,7.1,13,9.4,17.2
	C263.9,235.5,266.2,254.3,265.5,257.3z"/>
<g>
	<g>
		<path class="st2" d="M927.3,229.7c-9.6-8.8-20-16.7-30.9-23.4"/>
		<g>
			<polygon points="932.4,220.2 938,240.4 917.7,235.2 			"/>
		</g>
	</g>
</g>
<g>
	<g>
		<path class="st2" d="M688.9,206.3c-11.4,6.8-21.7,14.6-31.3,23.4"/>
		<g>
			<polygon points="652.6,220.2 647,240.4 667.3,235.1 			"/>
		</g>
	</g>
</g>
<path d="M928.1,306.8c-3-6-17.2-5.1-21.4-5.1s-34.7,17.6-36,19.3c-1.3,1.7-13.3,3.4-16.7,2.6s-9-8.2-9-10.7c0-2.6-1.3-13.3-3-20.2
	c-1.7-6.9-0.9-23.6,0.4-29.6c1.3-6,14.2-39.5,14.2-41.6c0-2.1,9.4-45,11.6-53.6c2.1-8.6-6.4-13.3-10.7-14.2
	c-4.3-0.9-10.7,10.7-11.6,13.7c-0.9,3-10.3,34.3-11.6,36.9c-1.3,2.6-11.6,31.7-11.6,33c0,1.3-6,7.7-6,7.7l-3.9-1.7l7.7-32.6
	c0,0,5.1-39.5,4.3-44.2c-0.9-4.7,2.1-26.6,1.7-31.7s-8.2-7.3-11.6-8.6c-3.4-1.3-9.4,5.6-9.9,7.7s-5.1,39-5.6,42.9
	s-9.9,56.6-9.9,56.6l-8.6,6.4c0,0,2.6-22.7,2.6-26.6c0-3.9,1.3-25.7,1.3-25.7s5.1-32.2,6.4-39.5c1.3-7.3-1.3-7.3-3.9-12
	c-2.6-4.7-12-2.1-13.7,0s-6.4,20.2-7.7,21.4c-1.3,1.3-9,45.5-7.7,48.5c1.3,3-2.1,36-2.1,36c-1.3,3-8.7,4.3-8.7,4.3l-3.7-5.1
	l-4.3-27.5l-1.7-5.1c0,0-2.1-28.3-3.4-34.7c-1.3-6.4-7.3-6.9-9-7.7s-7.3,3-9,9.4c-1.7,6.4-0.9,33.9,0,35.6
	c0.9,1.7,10.3,43.3,10.3,43.3s0.5,37.3,0.5,45.5s4.1,47.7,8.6,56.3c5.2,9.8,10.7,14.7,10.7,14.7l1.3,42.4l0.1,2.6h78.5
	c-2.1-17-4.5-39.7-3.2-41.6c2.1-3,9.9-3.8,13.3-6.4c3.4-2.6,26.6-9.4,29.2-11.1c2.6-1.7,16.7-17.1,16.7-17.1s36.5-11.1,43.3-15.4
	C932.4,320.1,931.1,312.8,928.1,306.8z"/>
<path class="st1" d="M950.6,344.6c-1.4-6.6-15.4-9.2-19.5-10.2s-38,8.6-39.7,9.9c-1.7,1.4-13.7,0.1-16.9-1.6
	c-3.1-1.7-6.7-10.1-6.1-12.6c0.6-2.5,2-13.2,2-20.3c0-7.1,4.9-23.1,7.6-28.6s23.4-34.8,23.9-36.9c0.5-2.1,20.1-41.4,24.3-49.2
	c4.2-7.8-3-14.5-6.9-16.3c-4-1.9-13,7.8-14.6,10.5c-1.6,2.7-18.4,30.8-20.2,33c-1.9,2.2-19,28-19.3,29.2c-0.3,1.2-7.7,6-7.7,6
	l-3.3-2.6l15.4-29.7c0,0,14.6-37,14.9-41.8c0.3-4.8,8.6-25.3,9.4-30.4c0.8-5.1-6.1-9.1-9.1-11.1c-3-2.1-10.5,3.1-11.5,5.1
	c-0.9,2-14.5,36.6-15.9,40.2s-23.4,52.5-23.4,52.5l-9.9,4.1c0,0,8-21.4,9-25.2c0.9-3.7,7.5-24.6,7.5-24.6s12.8-29.9,15.9-36.7
	c3-6.8,0.5-7.4-0.8-12.6c-1.3-5.2-11.1-5-13.3-3.3c-2.2,1.7-11.2,18-12.7,18.9c-1.6,0.9-19.8,41.9-19.3,45.1
	c0.5,3.2-10.9,34.4-10.9,34.4c-2,2.6-9.5,2-9.5,2l-2.4-5.9l2.5-27.7l-0.4-5.4c0,0,4.8-28,5.2-34.5c0.3-6.6-5.4-8.4-6.9-9.7
	c-1.5-1.3-7.8,1.1-11,7c-3.2,5.8-9.1,32.7-8.7,34.5c0.4,1.9-0.6,44.5-0.6,44.5s-8.6,36.3-10.6,44.2s-7.7,47.3-5.4,56.7
	c2.6,10.8,6.7,16.9,6.7,16.9l-9.1,41.6l-0.6,2.7l76.1,19.2c2.2-17,5.4-39.8,7.1-41.2c2.8-2.4,10.5-1.4,14.5-3c4-1.7,28.1-2.7,31-3.7
	c2.9-1,20.4-12.6,20.4-12.6s38.1-1.9,45.8-4.4C951.5,358.5,952,351.1,950.6,344.6z"/>
<path class="st1" d="M898.7,276.9c-4.3-5.1-17.9-1-22.1,0c-4.2,1-29.7,25.2-30.5,27.2c-0.9,2-12.1,6.4-15.7,6.4
	c-3.5,0-10.7-5.8-11.3-8.3c-0.6-2.5-4.4-12.6-7.6-18.9c-3.3-6.3-6.3-22.7-6.5-28.9s4.6-41.7,4.1-43.8c-0.5-2.1-1.3-46-1.2-54.8
	c0.1-8.8-9.4-11.4-13.7-11.3c-4.4,0.2-7.9,12.9-8.1,16.1c-0.1,3.1-2,35.8-2.7,38.6c-0.7,2.8-3.9,33.6-3.6,34.8c0.3,1.3-4,8.9-4,8.9
	l-4.2-0.8l-0.1-33.5c0,0-4.2-39.6-6.1-44c-1.9-4.4-4.1-26.4-5.7-31.3c-1.6-4.9-9.6-5.2-13.3-5.6c-3.6-0.5-7.9,7.6-7.8,9.8
	c0.1,2.2,4.1,39.2,4.6,43s3.6,57.4,3.6,57.4l-6.8,8.3c0,0-2.8-22.7-3.7-26.5c-0.9-3.8-4.8-25.3-4.8-25.3s-2.5-32.5-3-39.9
	c-0.5-7.4-3-6.8-6.6-10.8s-12.2,0.7-13.3,3.2c-1.2,2.5-1.6,21.1-2.5,22.7c-1,1.6,1.9,46.3,3.8,48.9c2,2.6,6.3,35.5,6.3,35.5
	c-0.6,3.2-7.5,6.2-7.5,6.2l-4.8-4.1l-10.6-25.7l-2.9-4.6c0,0-8.7-27-11.4-33c-2.8-6-8.7-5-10.6-5.4c-1.9-0.4-6.4,4.6-6.6,11.3
	c-0.2,6.7,7.1,33.2,8.3,34.6c1.2,1.5,20.1,39.7,20.1,39.7s9.2,36.2,11.1,44.1s15.1,45.4,21.5,52.8c7.3,8.3,13.8,11.8,13.8,11.8
	l11.2,41.1l0.7,2.7l76.4-18.3c-6-16.1-13.7-37.7-12.8-39.8c1.4-3.4,8.7-6.1,11.4-9.4c2.7-3.3,23.7-15.4,25.8-17.7
	c2.1-2.3,12.3-20.6,12.3-20.6s32.9-19.4,38.5-25.1C905.9,288.8,903,282,898.7,276.9z"/>
<g>
	<path d="M264,527.6c-11.2,0-16.9-8.5-16.9-22.3s5.7-22.3,16.9-22.3c11.2,0,16.9,8.4,16.9,22.3S275.2,527.6,264,527.6z M264,490.4
		c-4.9,0-7.8,4.1-7.8,14.9c0,10.8,2.9,15,7.8,15s7.8-4.2,7.8-15C271.8,494.5,268.9,490.4,264,490.4z"/>
	<path d="M312.4,526.7l-9.5-18.8l-3.9,4.8v14h-9v-42.6h9v16.1l12.2-16.1h11.2l-13.8,16.9l14.5,25.7H312.4z"/>
</g>
<g>
	<path d="M724.6,513.2c-0.8,7.9-4.9,14.5-15.5,14.5c-11,0-16.6-8.5-16.6-22.3c0-13.9,5.7-22.3,16.9-22.3c10.2,0,14.1,6.4,14.9,13.6
		l-8.3,1.4c-0.6-5.5-2.7-7.7-6.5-7.7c-4.9,0-7.8,4.1-7.8,14.9c0,10.8,2.9,15,7.7,15c4.7,0,6.4-3.2,6.8-8.3L724.6,513.2z"/>
	<path d="M760,527.2c-5.5,0-8.1-1-9.5-5c-1.8,3-4.4,5.3-9,5.3c-4.9,0-9.5-2.3-9.5-8.8c0-5.2,3.6-7.6,9.8-9.1l5-1.1
		c2.2-0.5,2.5-1,2.5-2.2v-0.5c0-2.5-0.7-4-4.1-4c-2.9,0-4.3,1.7-4.3,4.7l-8-0.5c0-5.6,4.7-9.5,12.4-9.5c8.6,0,12.1,3.4,12.1,9.2
		v12.4c0,2.6,0.7,3.5,3.5,3.8L760,527.2z M749.1,511.8c-0.4,0.5-1,0.8-2.3,1.3l-2.6,0.9c-1.7,0.6-4.1,1.6-4.1,4.4
		c0,2.6,1.5,3.6,3.4,3.6c2.8,0,4.6-2,5.6-4V511.8z"/>
	<path d="M775.8,501.1c1.3-2.8,4.9-4.6,8-4.6c4.2,0,6.7,1.4,8.2,3.7c1.4,2,2.1,4.5,2.1,7.8v18.8h-8v-17.4c0-2.1-0.3-3.5-1-4.6
		c-0.6-1-1.8-1.7-3.5-1.7c-2.6,0-5.5,1.8-5.5,7.3v16.3h-8v-20.2c0-2.9-0.1-6.3-0.3-9.3h7.6c0.1,1.2,0.2,2.6,0.2,3.8H775.8z"/>
	<path d="M828.4,516.4c-0.8,5.2-3.2,11.1-12.9,11.1c-8.2,0-13.5-6.1-13.5-15.7c0-10,5.6-15.4,13.9-15.4c8.2,0,11.6,5.2,12.2,10.2
		l-7.4,0.7c-0.4-3.2-2.2-4.8-4.9-4.8c-3.8,0-5.7,3-5.7,9.4c0,6.4,1.9,9.5,5.5,9.5c3.5,0,4.9-1.8,5.3-5.6L828.4,516.4z"/>
	<path d="M860.5,518.4c-1,4.3-4.5,9.1-12.2,9.1c-9,0-14-6.2-14-15.7s5.5-15.4,13.9-15.4c7.8,0,13.1,5.6,13.1,14.5
		c0,1.1-0.1,2.2-0.2,3.2h-18.7c0.1,5.2,2.5,7.4,6.1,7.4c2.3,0,4.4-1,5.2-4L860.5,518.4z M853.4,509.2c-0.1-4.3-1.7-6.8-5.4-6.8
		c-3.4,0-5.5,2.7-5.6,6.8H853.4z"/>
	<path d="M869.8,484.1h8v42.6h-8V484.1z"/>
</g>
</svg>
