<?xml version="1.0" encoding="utf-8"?>
<!-- Generator: Adobe Illustrator 19.2.1, SVG Export Plug-In . SVG Version: 6.00 Build 0)  -->
<svg version="1.1" id="Layer_1" xmlns="http://www.w3.org/2000/svg" xmlns:xlink="http://www.w3.org/1999/xlink" x="0px" y="0px"
	 viewBox="0 0 1136 640" style="enable-background:new 0 0 1136 640;" xml:space="preserve">
<style type="text/css">
	.st0{fill:none;stroke:#000000;stroke-width:10;stroke-miterlimit:10;}
	.st1{opacity:8.000000e-02;}
	.st2{fill:none;stroke:#000000;stroke-width:7;stroke-miterlimit:10;}
</style>
<path d="M571.4,417H645c-1.5-7-5.5-30.9-3.8-39.2c2.1-10.1,12.3-35.6,13.3-58c1.1-22.4-10.7-36.7-13.3-38.3c-2.7-1.6-14.9,0-14.9,0
	s-6.9-8.5-10.7-9c-3.7-0.5-12.8,3.2-12.8,3.2s-10.7-92.2-11.2-97c-0.5-4.8-8.5-8-12.3-8c-3.7,0-4.8,11.2-5.3,12.8s2.7,93.3,2.7,93.3
	s-9.1-75.2-10.7-87.4s-10.1-11.2-14.4-11.2c-4.3,0-2.1,32.5-2.1,32.5s3.7,94.4,3.7,98.1s-3.7,5.3-3.7,5.3s-6.4,1.1-10.1,0
	c-3.7-1.1-11.7-20.8-14.9-29.3s-13.9-10.1-18.1-11.7c-4.3-1.6-8,5.3-8,5.3l4.8,10.1c2.7,6.4,6.4,20.3,7.5,23.5
	c1.1,3.2,24,40.5,27.2,43.2c3.2,2.7,21.9,32.8,22.9,35.5C561.6,392.7,568.7,410,571.4,417z"/>
<path class="st1" d="M573.5,392h73.6c-1.5-8-5.5-31.4-3.8-39.8c2.1-10.1,12.3-35.9,13.3-58.3c1.1-22.4-10.7-36.9-13.3-38.5
	c-2.7-1.6-14.9,0-14.9,0s-6.9-8.6-10.7-9.1c-3.7-0.5-12.8,3.2-12.8,3.2s-10.7-92.2-11.2-97c-0.5-4.8-8.5-8-12.3-8
	c-3.7,0-4.8,11.2-5.3,12.8s2.7,93.3,2.7,93.3s-9.1-75.2-10.7-87.4c-1.6-12.3-10.1-11.2-14.4-11.2s-2.1,32.5-2.1,32.5
	s3.7,94.4,3.7,98.1c0,3.7-3.7,5.3-3.7,5.3s-6.4,1.1-10.1,0c-3.7-1.1-11.7-20.8-14.9-29.3c-3.2-8.5-13.9-10.1-18.1-11.7
	c-4.3-1.6-8,5.3-8,5.3l4.8,10.1c2.7,6.4,6.4,20.3,7.5,23.5s24,40.5,27.2,43.2c3.2,2.7,21.9,33.4,22.9,36.1
	C563.7,367.2,570.8,385,573.5,392z"/>
<path class="st1" d="M573.5,404h73.6c-1.5-8-5.5-31-3.8-39.4c2.1-10.1,12.3-35.7,13.3-58.1c1.1-22.4-10.7-36.8-13.3-38.4
	c-2.7-1.6-14.9,0-14.9,0s-6.9-8.5-10.7-9.1c-3.7-0.5-12.8,3.2-12.8,3.2s-10.7-92.2-11.2-97c-0.5-4.8-8.5-8-12.3-8
	c-3.7,0-4.8,11.2-5.3,12.8c-0.5,1.6,2.7,93.3,2.7,93.3s-9.1-75.2-10.7-87.4c-1.6-12.3-10.1-11.2-14.4-11.2s-2.1,32.5-2.1,32.5
	s3.7,94.4,3.7,98.1s-3.7,5.3-3.7,5.3s-6.4,1.1-10.1,0c-3.7-1.1-11.7-20.8-14.9-29.3c-3.2-8.5-13.9-10.1-18.1-11.7
	c-4.3-1.6-8,5.3-8,5.3l4.8,10.1c2.7,6.4,6.4,20.3,7.5,23.5c1.1,3.2,24,40.5,27.2,43.2c3.2,2.7,21.9,33,22.9,35.7
	C563.7,379.6,570.8,397,573.5,404z"/>
<g>
	<g>
		<line class="st2" x1="517.5" y1="143" x2="517.5" y2="216"/>
		<g>
			<polygon points="507.1,146 517.6,127.9 528,146 			"/>
		</g>
		<g>
			<polygon points="507.1,213 517.6,231.1 528,213 			"/>
		</g>
	</g>
</g>
<g>
	<path d="M262.5,527.6c-10.4,0-15.4-5.4-15.4-13.7l8.6-1.6c0.1,6.5,2.8,8.4,7.2,8.4s6.5-2.1,6.5-5.3c0-2.4-1.4-4.5-5.3-6.1l-7.1-3
		c-6.1-2.6-9-5.6-9-11.6c0-7.8,6.7-11.6,14.6-11.6c10,0,14.7,5.9,14.7,12.1l-8.5,1.6c-0.2-4.6-2.3-6.5-6.4-6.5
		c-3.1,0-5.6,1.3-5.6,4.1c0,2.9,1.6,4.3,5,5.6l6.6,2.7c6.6,2.7,9.8,6.1,9.8,12.4C278.2,523,271.9,527.6,262.5,527.6z"/>
	<path d="M319,526.7h-9.6l-2.6-12.8c-0.4-2.1-1.2-6.2-1.6-8.9H305c-0.4,2.7-1.1,6.8-1.5,8.9l-2.6,12.8h-9.7l-7.4-29.5h8.4l2.8,14.6
		c0.4,2,0.9,4.9,1.3,7.7h0.1c0.4-2.9,0.8-5.7,1.1-7.7l2.6-14.6h9.7l2.9,14.6c0.4,2,0.9,4.9,1.3,7.7h0.1c0.3-2.8,0.7-5.6,1.1-7.7
		l2.6-14.5h8.3L319,526.7z"/>
	<path d="M333.4,491.8v-7.6h8v7.6H333.4z M333.4,526.7v-29.5h8v29.5H333.4z"/>
	<path d="M359.6,538.7h-8v-31.6c0-3.7-0.1-6.5-0.3-9.9h7.7c0.1,1,0.2,1.9,0.3,3.4h0.1c1.6-2.8,4.7-4.1,7.7-4.1
		c7.2,0,11.9,5.8,11.9,15.8c0,10.1-5,15.3-11.6,15.3c-2.9,0-6-1.3-7.8-4.2h-0.1c0.1,1.6,0.1,4.1,0.1,5.8V538.7z M365.2,502.5
		c-3.5,0-5.8,2.8-5.8,9.6c0,6.4,2.3,9.4,5.7,9.4c3.7,0,5.7-2.8,5.7-9.4C370.8,505.3,368.8,502.5,365.2,502.5z"/>
	<path d="M411.7,518.4c-1,4.3-4.5,9.1-12.2,9.1c-9,0-14-6.2-14-15.7s5.5-15.4,13.9-15.4c7.8,0,13.1,5.6,13.1,14.5
		c0,1.1-0.1,2.2-0.2,3.2h-18.7c0.1,5.2,2.5,7.4,6.1,7.4c2.3,0,4.4-1,5.2-4L411.7,518.4z M404.6,509.2c-0.1-4.3-1.7-6.8-5.4-6.8
		c-3.4,0-5.5,2.7-5.6,6.8H404.6z"/>
	<path d="M470.8,526.7h-9.6l-2.6-12.8c-0.4-2.1-1.2-6.2-1.6-8.9h-0.1c-0.4,2.7-1.1,6.8-1.5,8.9l-2.6,12.8h-9.7l-7.4-29.5h8.4
		l2.8,14.6c0.4,2,0.9,4.9,1.3,7.7h0.1c0.4-2.9,0.8-5.7,1.1-7.7l2.6-14.6h9.7l2.9,14.6c0.4,2,0.9,4.9,1.3,7.7h0.1
		c0.3-2.8,0.7-5.6,1.1-7.7l2.6-14.5h8.3L470.8,526.7z"/>
	<path d="M485.2,491.8v-7.6h8v7.6H485.2z M485.2,526.7v-29.5h8v29.5H485.2z"/>
	<path d="M513.7,516.2c0,2.2,0.1,3.1,0.7,4c0.5,0.7,1.4,1.3,2.6,1.3c1.9,0,3.1-0.4,4.9-1.2l2,5.2c-2.2,1-4.8,2.1-8.5,2.1
		c-3.1,0-5.9-0.9-7.3-2.5c-2.1-2.3-2.4-5.5-2.4-7.9v-14.2h-5.8v-5.7h5.8V488l8-3.4v12.7h7.6v5.7h-7.6V516.2z"/>
	<path d="M547.5,526.7v-17.5c0-2.1-0.2-3.6-0.9-4.7c-0.7-1-1.7-1.5-3.3-1.5c-2.5,0-5.2,2.2-5.2,7.3v16.3h-8v-42.6h8v11.2
		c0,1.6,0,3.7-0.1,5.5h0.1c1.4-2.6,4.6-4.4,7.6-4.4c3.9,0,6.2,1.3,7.8,3.5c1.4,2,2,4.7,2,8v18.8H547.5z"/>
	<path d="M593.6,516.2c0,2.2,0.1,3.1,0.7,4c0.5,0.7,1.4,1.3,2.6,1.3c1.9,0,3.1-0.4,4.9-1.2l2,5.2c-2.2,1-4.8,2.1-8.5,2.1
		c-3.1,0-5.9-0.9-7.3-2.5c-2.1-2.3-2.4-5.5-2.4-7.9v-14.2h-5.8v-5.7h5.8V488l8-3.4v12.7h7.6v5.7h-7.6V516.2z"/>
	<path d="M642.4,526.7h-9.6l-2.6-12.8c-0.4-2.1-1.2-6.2-1.6-8.9h-0.1c-0.4,2.7-1.1,6.8-1.5,8.9l-2.6,12.8h-9.7l-7.4-29.5h8.4
		l2.8,14.6c0.4,2,0.9,4.9,1.3,7.7h0.1c0.4-2.9,0.8-5.7,1.1-7.7l2.6-14.6h9.7l2.9,14.6c0.4,2,0.9,4.9,1.3,7.7h0.1
		c0.3-2.8,0.7-5.6,1.1-7.7l2.6-14.5h8.3L642.4,526.7z"/>
	<path d="M668.8,527.5c-8.2,0-14-5.5-14-15.5c0-10.1,5.8-15.5,14-15.5c8.2,0,14,5.5,14,15.5C682.8,522.1,677,527.5,668.8,527.5z
		 M668.8,502.5c-3.8,0-5.8,2.9-5.8,9.5s2,9.5,5.8,9.5c3.8,0,5.8-2.9,5.8-9.5S672.6,502.5,668.8,502.5z"/>
	<path d="M732.8,526.7v-23.8h-13.6v23.8h-8v-23.8h-5.6v-5.7h5.6v-3.8c0-2.6,0.2-5.6,2.3-7.9c1.4-1.6,4.2-2.5,7.3-2.5
		c3.2,0,5,0.8,7.1,1.9l-1.9,5c-1.3-0.6-2.4-0.8-3.6-0.8c-1.1,0-2,0.5-2.5,1.3c-0.5,0.8-0.7,1.9-0.7,4.2v2.6h21.6v29.5H732.8z
		 M732.8,491.8v-7.6h8v7.6H732.8z"/>
	<path d="M758.7,501.1c1.3-2.8,4.9-4.6,8-4.6c4.2,0,6.7,1.4,8.2,3.7c1.4,2,2.1,4.5,2.1,7.8v18.8h-8v-17.4c0-2.1-0.3-3.5-1-4.6
		c-0.6-1-1.8-1.7-3.5-1.7c-2.6,0-5.5,1.8-5.5,7.3v16.3h-8v-20.2c0-2.9-0.1-6.3-0.3-9.3h7.6c0.1,1.2,0.2,2.6,0.2,3.8H758.7z"/>
	<path d="M804.4,523.2h-0.1c-1.3,2.5-3.8,4-7.6,4c-5.4,0-11.8-4.4-11.8-15.2c0-10.9,6.4-15.5,11.8-15.5c3.8,0,6.2,1.6,7.8,4.4h0.1
		c0.1-1.1,0.2-2.4,0.3-3.6h7.5c-0.2,3.8-0.3,6.7-0.3,9.9v19.7c0,4.1-0.9,7.1-2.6,9.3c-1.6,2-4.4,3.7-11.2,3.7
		c-5.3,0-11.2-1.9-12.2-9.1l7.4-0.6c0.4,3.4,2.4,4.3,5.5,4.3c2.1,0,3.5-0.7,4.4-1.9s1-2.8,1-5.2
		C804.3,526.7,804.3,525.2,804.4,523.2z M798.8,521.2c3.4,0,5.6-2.8,5.6-9.3c0-6.6-2.4-9.4-5.6-9.4c-3.6,0-5.8,2.7-5.8,9.4
		C793.1,518.5,795.2,521.2,798.8,521.2z"/>
	<path d="M846.7,518.4c-1,4.3-4.5,9.1-12.2,9.1c-9,0-14-6.2-14-15.7s5.5-15.4,13.9-15.4c7.8,0,13.1,5.6,13.1,14.5
		c0,1.1-0.1,2.2-0.2,3.2h-18.7c0.1,5.2,2.5,7.4,6.1,7.4c2.3,0,4.4-1,5.2-4L846.7,518.4z M839.6,509.2c-0.1-4.3-1.7-6.8-5.4-6.8
		c-3.4,0-5.5,2.7-5.6,6.8H839.6z"/>
	<path d="M875.5,504.6c-1-0.4-1.9-0.5-3.4-0.5c-2.5,0-5.1,0.9-6.7,3.2c-1.1,1.7-1.7,3.8-1.7,7.1v12.2h-8v-19.7c0-2.7-0.2-7-0.4-9.7
		h7.6c0.2,1.9,0.2,3.9,0.4,6.1h0.1c1.7-4.5,5-6.8,9.4-6.8c1.1,0,2,0.2,2.7,0.5V504.6z"/>
	<path d="M893.2,527.5c-10,0-12.5-4.6-13-9.6l8-0.5c0.6,3.9,2.6,4.7,5,4.7c2.7,0,4.6-1.1,4.6-3.5c0-2.2-2-3.1-4.3-3.7l-3.8-1
		c-4.7-1.3-8.9-2.9-8.9-8.7c0-5.6,4.9-8.7,12.4-8.7c6.8,0,11.6,3.3,11.9,8.6l-7.7,0.5c-0.3-2.2-1.3-3.8-4.6-3.8
		c-2.3,0-4.1,0.9-4.1,2.6c0,2.2,1.4,2.8,3.7,3.4l4,1c5.5,1.4,9.6,3.4,9.6,8.8C906.1,524.5,901.4,527.5,893.2,527.5z"/>
</g>
</svg>
