<?xml version="1.0" encoding="utf-8"?>
<!-- Generator: Adobe Illustrator 19.2.1, SVG Export Plug-In . SVG Version: 6.00 Build 0)  -->
<svg version="1.1" id="Layer_1" xmlns="http://www.w3.org/2000/svg" xmlns:xlink="http://www.w3.org/1999/xlink" x="0px" y="0px"
	 viewBox="0 0 540.5 139.2" style="enable-background:new 0 0 540.5 139.2;" xml:space="preserve">
<style type="text/css">
	.st0{fill:#FFFFFF;}
</style>
<g>
	<path class="st0" d="M81.8,136.2l-2.4-16.5H79c-4.5,11.3-15.6,19.5-29.6,19.5C21,139.2,0,116.6,0,69.6C0,25.9,18.8,0,51.6,0
		c29.8,0,41.3,20.8,42.8,38.1l-21.6,3.4C71.3,27,64.9,18.8,51,18.8c-16.5,0-28.1,13.7-28.1,50.8c0,37.1,11.6,50.8,28.3,50.8
		c15.6,0,24-13.9,24-34.1v-6.6H49.5V62.8h45.6v73.3H81.8z"/>
	<path class="st0" d="M201.4,110.8c-3,12.8-13.5,27.8-36.8,27.8c-27,0-42-19.1-42-48.8c0-29.3,16.3-48,41.6-48
		c23.6,0,39.8,17.4,39.8,45.2c0,3.6-0.2,6.8-0.4,9.6h-60.4c0.7,17.1,7.9,26.3,21.6,26.3c9.6,0,15.9-5.1,18.4-14.8L201.4,110.8z
		 M183.6,82.1c-0.2-15.6-6.9-24.6-19.9-24.6c-12,0-19.9,9.9-20.3,24.6H183.6z"/>
	<path class="st0" d="M263.7,138.6c-27.9,0-37.5-13.5-38.8-28.9l20.4-2.3c1.7,12.6,8.8,16.1,18.9,16.1c11.6,0,17.3-4.9,17.3-12.4
		c0-8.3-6.6-10.9-15.6-13.3l-12.4-3.4c-14.1-3.8-26.6-8.6-26.6-26.4c0-16.5,13.7-26.3,36.8-26.3c21.8,0,34.7,10.5,35.8,25.7
		L280,69.8c-1.1-8.8-5.6-13.1-16.9-13.1c-9.9,0-15.9,3.6-15.9,9.8c0,7.1,4.5,9.6,13.9,12l12.9,3.4c16.7,4.3,28.3,10.7,28.3,27.2
		C302.3,128.7,289,138.6,263.7,138.6z"/>
	<path class="st0" d="M389.3,133.2c-6.2,3-13.9,5.4-23.4,5.4c-24.8,0-28.1-17.8-28.1-31.7V59.6H319V44.1h18.8V15l20.1-8.6v37.7H382
		v15.6h-24.2v44.8c0,15.6,3.4,18,11.4,18c5.4,0,9.8-1.1,14.6-3.2C385.6,124,387.4,128.5,389.3,133.2z"/>
	<path class="st0" d="M409.2,136.2V44.1h20.1v92.1H409.2z"/>
	<path class="st0" d="M498.5,138.6c-24.8,0-41.8-18-41.8-48.4c0-30.4,17.1-48.4,41.8-48.4c24.9,0,42,18,42,48.4
		C540.5,120.6,523.4,138.6,498.5,138.6z M409.2,23.3V7.4h115v15.8H409.2z M498.5,57.8c-13.5,0-21.2,10.9-21.2,32.4
		c0,21.6,7.7,32.4,21.2,32.4c13.5,0,21.2-10.9,21.2-32.4C519.7,68.6,512,57.8,498.5,57.8z"/>
</g>
<g>
</g>
<g>
</g>
<g>
</g>
<g>
</g>
<g>
</g>
<g>
</g>
<g>
</g>
<g>
</g>
<g>
</g>
<g>
</g>
<g>
</g>
<g>
</g>
<g>
</g>
<g>
</g>
<g>
</g>
</svg>
